<svg xmlns="http://www.w3.org/2000/svg" xmlns:xlink="http://www.w3.org/1999/xlink" width="272" height="245" viewBox="0 0 272 245">
  <defs>
    <path id="contactthankyou-a" d="M24,63 C28.2345109,27.6628912 45.2890625,7.03070028e-15 87,0 C128.710938,0 150,28.2060608 150,63 L150,177 C150,205.132128 157.660156,203.730015 157.660156,210 C157.660156,214.17999 155.106771,216.513323 150,217 L12,217 C5.372583,217 7.2475359e-13,214.627417 7.2475359e-13,208 C7.2475359e-13,196.448793 18,195.163542 18,166 C18,153.783584 19.7654891,98.3371088 24,63 Z"/>
  </defs>
  <g fill="none" fill-rule="evenodd" transform="translate(14 14)">
    <path fill="#FAB44D" d="M121.705982,44.8438312 L160.787416,51.8515367 C161.333424,51.9494415 161.853099,52.1598428 162.313426,52.4693733 L170.063502,57.6806364 C171.896739,58.9133315 172.383575,61.3987605 171.15088,63.2319976 C170.86216,63.6613749 170.492877,64.0306578 170.063499,64.319377 L162.313425,69.5306285 C161.853099,69.8401578 161.333424,70.0505584 160.787418,70.148463 L121.705982,77.1561688 C119.531523,77.5460717 117.452697,76.0994034 117.062794,73.9249447 C117.021014,73.6919391 117,73.4556847 117,73.218963 L117,48.781037 C117,46.571898 118.790861,44.781037 121,44.781037 C121.236722,44.781037 121.472976,44.8020509 121.705982,44.8438312 Z"/>
    <mask id="contactthankyou-b" fill="#fff">
      <use xlink:href="#contactthankyou-a"/>
    </mask>
    <use fill="#495F83" xlink:href="#contactthankyou-a"/>
    <path fill="#DFD9D3" d="M151.47764,82 L158,82 L158,217 C124.099544,217 104.099544,217 98,217 C91.4168279,214.891647 86.4755194,202.080598 90,160.230832 C90.6245266,152.815189 91.1537041,145.528328 91.5875325,138.37025 L91.5875333,138.37025 C93.506911,106.700918 119.750198,82 151.47764,82 Z" mask="url(#contactthankyou-b)"/>
    <g transform="translate(108 36)">
      <circle cx="15" cy="15" r="13" fill="#262626" stroke="#DFD9D3" stroke-width="4"/>
      <circle cx="10" cy="11.429" r="6" fill="#DFD9D3"/>
    </g>
    <g transform="rotate(-36 223.141 -196.409)">
      <rect width="72" height="47" fill="#DFD9D3" rx="2"/>
      <rect width="9" height="9.792" x="60" y="2.938" fill="#FA678C" rx="1"/>
      <rect width="42" height="3.917" x="15" y="17.625" fill="#495F83"/>
      <rect width="30" height="3.917" x="15" y="25.458" fill="#495F83"/>
    </g>
    <g fill="#495F83" transform="rotate(-10 587.562 -394.632)">
      <path d="M0,0 C25.7940848,6.66666667 54.4262321,10 85.8964417,10 C89.50745,10 91.5644449,12.243161 91.5644449,16 C91.5644449,27.0017361 81.8893335,50 45.4129571,50 L0,50 L0,0 Z"/>
      <path d="M0,70 C0,60 10,50 20,50 C16.2233788,50 13.1856945,47.9778378 8.53174819,47.9778378 C6.97145226,47.9778378 4.1275362,48.6518919 0,50 C0,63.3333333 0,70 0,70 Z"/>
    </g>
  </g>
</svg>
