<svg xmlns="http://www.w3.org/2000/svg" xmlns:xlink="http://www.w3.org/1999/xlink" width="400" height="400" viewBox="0 0 400 400">
  <defs>
    <path id="dummy-a" d="M350.632422,220.380078 C356.45625,210.51875 359.75,200 359.75,187.283203 C359.75,158.054492 335.034922,130.452734 302.760156,130.452734 L278.535156,130.452734 C281.802344,121.946094 284.412109,111.772656 284.412109,99.5472656 C284.412109,51.2075 259.383594,30 221.146875,30 C180.235977,30 182.569492,93.0414453 173.49375,102.117188 C158.38832,117.222617 140.546289,146.242148 127.832812,157.5 L62.25,157.5 C50.5140234,157.5 41,167.014023 41,178.75 L41,338.125 C41,349.860977 50.5140234,359.375 62.25,359.375 L104.75,359.375 C114.639883,359.375 122.950625,352.618828 125.321328,343.470703 C154.878086,344.13543 175.165859,369.993359 243.392969,369.993359 C248.1875,369.993359 253.5,370 258.148438,370 C309.358945,370 332.514141,343.820664 333.147656,306.694922 C341.992305,294.45957 346.627461,278.059219 344.6625,262.209375 C351.206172,249.956094 353.73625,235.419102 350.632422,220.380078 Z M309.626562,256.126562 C317.967187,270.158203 310.463281,288.937891 300.369531,294.356641 C305.482812,326.749609 288.676719,338.118359 265.094531,338.118359 L239.979687,338.118359 C192.406914,338.118359 161.601055,313.003516 126,313.003516 L126,189.375 L133.251562,189.375 C152.084375,189.375 178.394531,142.299609 196.032031,124.655469 C214.864844,105.822656 208.589453,74.4324219 221.146875,61.875 C252.537109,61.875 252.537109,83.7757813 252.537109,99.5472656 C252.537109,125.558594 233.704297,137.212891 233.704297,162.327734 L302.760156,162.327734 C316.778516,162.327734 327.815234,174.885156 327.875,187.442578 C327.934766,199.993359 319.361719,212.550781 313.086328,212.550781 C322.043867,222.216211 323.957695,242.590313 309.626562,256.126562 Z M99.4375,316.875 C99.4375,325.677148 92.3021484,332.8125 83.5,332.8125 C74.6978516,332.8125 67.5625,325.677148 67.5625,316.875 C67.5625,308.072852 74.6978516,300.9375 83.5,300.9375 C92.3021484,300.9375 99.4375,308.072852 99.4375,316.875 Z"/>
  </defs>
  <g fill="none" fill-rule="evenodd">
    <rect width="400" height="400" fill="#EE86A8"/>
    <use fill="#FFF" fill-rule="nonzero" xlink:href="#dummy-a"/>
  </g>
</svg>
