<svg xmlns="http://www.w3.org/2000/svg" xmlns:xlink="http://www.w3.org/1999/xlink" width="580" height="158" viewBox="0 0 580 158">
  <defs>
    <path id="graphicdesigner-a" d="M12.9293238,27.4529511 C4.97816287,15.9261264 3.50228013,14.7431218 3.50228013,10.5068404 C3.50228013,4.70405472 8.20633485,0 14.0091205,0 C19.8119062,0 24.5159609,4.70405472 24.5159609,10.5068404 C24.5159609,14.7431218 23.0400782,15.9261264 15.0889173,27.4529511 C14.5671322,28.2067075 13.4510541,28.2066528 12.9293238,27.4529511 Z M14.0091205,14.8846906 C16.4269524,14.8846906 18.3869707,12.9246723 18.3869707,10.5068404 C18.3869707,8.08900847 16.4269524,6.12899023 14.0091205,6.12899023 C11.5912886,6.12899023 9.63127036,8.08900847 9.63127036,10.5068404 C9.63127036,12.9246723 11.5912886,14.8846906 14.0091205,14.8846906 Z"/>
    <path id="graphicdesigner-c" d="M17.87323,10.1998984 C21.1427726,13.4728339 21.0978997,18.7201798 17.8929303,21.9429342 C17.8869107,21.949501 17.8797967,21.956615 17.87323,21.9631818 L14.1958358,25.6405759 C10.9523961,28.8840156 5.67549967,28.8835779 2.43255244,25.6405759 C-0.810887296,22.3976834 -0.810887296,17.120185 2.43255244,13.8772925 L4.46310879,11.8467362 C5.00158436,11.3082606 5.92892248,11.6661498 5.95672182,12.4271296 C5.99218241,13.3969329 6.16609251,14.3712782 6.48698893,15.3121876 C6.59566906,15.6307857 6.51801694,15.9832026 6.27997134,16.2212482 L5.56380977,16.9374098 C4.03013941,18.4710801 3.98203779,20.9683153 5.50060456,22.5169798 C7.03416547,24.0809121 9.55482215,24.090215 11.1001485,22.5448886 L14.7775427,18.8680417 C16.3202423,17.325342 16.313785,14.831828 14.7775427,13.2955857 C14.5750124,13.0934384 14.3710046,12.9363831 14.2116508,12.8266632 C13.9830613,12.6696908 13.8421076,12.4139168 13.8314893,12.1368235 C13.8098189,11.5585642 14.0147023,10.962684 14.4716404,10.5057459 L15.6237811,9.35355049 C15.9259075,9.0514241 16.3998645,9.01432182 16.750202,9.25882476 C17.1514147,9.53897954 17.5272058,9.85388443 17.87323,10.1998984 Z M25.5856339,2.4871114 C22.3426866,-0.755890554 17.0657902,-0.756328339 13.8223505,2.4871114 L10.1449564,6.16450554 C10.1383896,6.17107231 10.1312756,6.17818632 10.125256,6.18475309 C6.92034137,9.40750749 6.87541368,14.6548534 10.1449564,17.9277889 C10.4909601,18.2737872 10.8667332,18.5886741 11.2679296,18.8688078 C11.6182671,19.1133107 12.0922788,19.0761537 12.3943505,18.7740821 L13.5464912,17.6218866 C14.0034293,17.1649485 14.2083127,16.5690684 14.1866423,15.9908091 C14.176024,15.7137157 14.0350703,15.4579418 13.8064808,15.3009694 C13.647127,15.1912495 13.4431192,15.0341941 13.2405889,14.8320469 C11.7043466,13.2958046 11.6978893,10.8022906 13.2405889,9.25959088 L16.9179831,5.58274397 C18.4633094,4.03741759 20.9839114,4.04672052 22.517527,5.61065277 C24.0360938,7.15931726 23.9880469,9.65655244 22.4543218,11.1902228 L21.7381603,11.9063844 C21.5001147,12.14443 21.4224625,12.4968469 21.5311427,12.815445 C21.8520391,13.7563544 22.0259492,14.7306997 22.0614098,15.7005029 C22.0892638,16.4614827 23.0165472,16.819372 23.5550228,16.2808964 L25.5855792,14.2503401 C28.8290736,11.0075023 28.8290736,5.73000391 25.5856339,2.4871114 Z"/>
    <path id="graphicdesigner-e" d="M26.8508143,4.69934853 L21.7919653,4.69934853 L21.7919653,2.75411238 C21.7919653,2.10732136 21.2714875,1.58697068 20.6245385,1.58697068 L7.3937025,1.58697068 C6.74675353,1.58697068 6.22627579,2.10732136 6.22627579,2.75411238 L6.22627579,4.69934853 L1.16742671,4.69934853 C0.520477742,4.69934853 0,5.21969921 0,5.86649023 L0,8.58982085 C0,10.3259441 1.09446254,12.1106983 3.01098806,13.4869529 C4.54323561,14.5908744 6.40625407,15.2911594 8.36169381,15.5148616 C9.88907709,18.0485317 11.6742671,19.0940961 11.6742671,19.0940961 L11.6742671,22.5955212 L9.33941368,22.5955212 C7.62232356,22.5955212 6.22627579,23.6021809 6.22627579,25.3188518 L6.22627579,25.9024226 C6.22627579,26.2233866 6.4889468,26.4859935 6.80998914,26.4859935 L21.2082519,26.4859935 C21.5292942,26.4859935 21.7919653,26.2233866 21.7919653,25.9024226 L21.7919653,25.3188518 C21.7919653,23.6021809 20.3959175,22.5955212 18.6788274,22.5955212 L16.3439739,22.5955212 L16.3439739,19.0940961 C16.3439739,19.0940961 18.129164,18.0485317 19.6565472,15.5148616 C21.6168512,15.2911594 23.4798697,14.5908744 25.007253,13.4869529 C26.9189142,12.1106983 28.018241,10.3259441 28.018241,8.58982085 L28.018241,5.86649023 C28.018241,5.21969921 27.4977633,4.69934853 26.8508143,4.69934853 Z M4.83022801,10.963009 C3.64334419,10.107105 3.11313789,9.15393933 3.11313789,8.58982085 L3.11313789,7.81172638 L6.23600434,7.81172638 C6.28464712,9.39709385 6.51813246,10.7879377 6.85863192,12.0037103 C6.12412595,11.7508296 5.43826276,11.4006871 4.83022801,10.963009 Z M24.9051031,8.58982085 C24.9051031,9.3727784 24.044126,10.3453965 23.188013,10.963009 C22.5799783,11.4006871 21.8892508,11.7508296 21.1547448,12.0037103 C21.4952443,10.7879377 21.7287296,9.39709385 21.7773724,7.81172638 L24.9051031,7.81172638 L24.9051031,8.58982085 Z"/>
    <path id="graphicdesigner-g" d="M3.50228013,25.3915309 L3.50228013,2.6267101 C3.50228013,1.176 4.67828013,0 6.12899023,0 L21.8892508,0 C23.3399609,0 24.5159609,1.176 24.5159609,2.6267101 L24.5159609,25.3915309 C24.5159609,26.842241 23.3399609,28.018241 21.8892508,28.018241 L6.12899023,28.018241 C4.67828013,28.018241 3.50228013,26.842241 3.50228013,25.3915309 Z M14.0091205,17.5114007 C16.910486,17.5114007 19.2625407,15.1593459 19.2625407,12.2579805 C19.2625407,9.35661498 16.910486,7.00456026 14.0091205,7.00456026 C11.107755,7.00456026 8.75570033,9.35661498 8.75570033,12.2579805 C8.75570033,15.1593459 11.107755,17.5114007 14.0091205,17.5114007 Z M19.1704417,18.4676326 L17.914327,18.0751036 C16.7691909,18.8473564 15.4210866,19.2625407 14.0091205,19.2625407 C12.5971544,19.2625407 11.2490502,18.8473564 10.103914,18.0751036 L8.84779935,18.4676326 C7.75120261,18.8103088 7.00456026,19.8259153 7.00456026,20.9747726 L7.00456026,23.2026059 C7.00456026,23.9279609 7.59256026,24.5159609 8.31791531,24.5159609 L19.7003257,24.5159609 C20.4256808,24.5159609 21.0136808,23.9279609 21.0136808,23.2026059 L21.0136808,20.9747726 C21.0136808,19.8259153 20.2670384,18.8103088 19.1704417,18.4676326 Z M22.7648208,2.84560261 L22.7648208,2.40781759 C22.7648208,2.04516743 22.4707935,1.75114007 22.1081433,1.75114007 L5.91009772,1.75114007 C5.54744756,1.75114007 5.2534202,2.04516743 5.2534202,2.40781759 L5.2534202,2.84560261 C5.2534202,3.20825277 5.54744756,3.50228013 5.91009772,3.50228013 L22.1081433,3.50228013 C22.4707935,3.50228013 22.7648208,3.20825277 22.7648208,2.84560261 Z"/>
    <polygon id="graphicdesigner-i" points="0 0 111 0 111 146 99 158 0 158"/>
  </defs>
  <g fill="none" fill-rule="evenodd">
    <rect width="158" height="158" fill="#0093BF" rx="12"/>
    <g transform="translate(38 38)">
      <mask id="graphicdesigner-b" fill="#fff">
        <use xlink:href="#graphicdesigner-a"/>
      </mask>
      <use fill="#000" fill-rule="nonzero" xlink:href="#graphicdesigner-a"/>
      <g fill="#FFF" mask="url(#graphicdesigner-b)">
        <rect width="27.993" height="27.993"/>
      </g>
    </g>
    <g transform="translate(93 38)">
      <mask id="graphicdesigner-d" fill="#fff">
        <use xlink:href="#graphicdesigner-c"/>
      </mask>
      <use fill="#000" fill-rule="nonzero" xlink:href="#graphicdesigner-c"/>
      <g fill="#FFF" mask="url(#graphicdesigner-d)">
        <rect width="27.993" height="27.993"/>
      </g>
    </g>
    <g transform="translate(93 93)">
      <mask id="graphicdesigner-f" fill="#fff">
        <use xlink:href="#graphicdesigner-e"/>
      </mask>
      <use fill="#000" fill-rule="nonzero" xlink:href="#graphicdesigner-e"/>
      <g fill="#FFF" mask="url(#graphicdesigner-f)">
        <rect width="27.993" height="27.993"/>
      </g>
    </g>
    <g transform="translate(37 93)">
      <mask id="graphicdesigner-h" fill="#fff">
        <use xlink:href="#graphicdesigner-g"/>
      </mask>
      <use fill="#000" fill-rule="nonzero" xlink:href="#graphicdesigner-g"/>
      <g fill="#FFF" mask="url(#graphicdesigner-h)">
        <rect width="27.993" height="27.993"/>
      </g>
    </g>
    <g transform="translate(201)">
      <mask id="graphicdesigner-j" fill="#fff">
        <use xlink:href="#graphicdesigner-i"/>
      </mask>
      <use fill="#E4EEF2" xlink:href="#graphicdesigner-i"/>
      <g mask="url(#graphicdesigner-j)">
        <g transform="translate(-9 47)">
          <polygon fill="#EE86A8" points="44 9 50 9 53 129 41 129" transform="rotate(45 47 69)"/>
          <path fill="#0093BF" fill-rule="nonzero" d="M115.467053,1.49211675 C115.36547,1.01557684 114.990394,0.640594624 114.513735,0.53903694 C111.997599,0 110.028449,0 108.067113,0 C100.002976,0 95.1660565,4.31229552 91.5559485,9.99952584 L83.4136705,9.99952584 C81.9915067,9.99952584 80.6943684,10.8041752 80.0614274,12.0697402 L76.2012687,19.7881242 C75.5761418,21.0380649 76.4825758,22.4989331 77.8812973,22.4989331 L85.3124935,22.4989331 C84.8514624,23.4988857 84.3826172,24.4910262 83.9059579,25.444106 C83.6637212,25.928458 83.7574903,26.5065556 84.1403805,26.88935 L89.1101395,31.8578644 C89.4930297,32.2406587 90.0712721,32.3344043 90.5557455,32.0922283 C91.509064,31.6156884 92.501453,31.1547727 93.5016561,30.6938571 L93.5016561,38.1231923 C93.5016561,39.5137513 94.9707043,40.4199584 96.2131441,39.8028001 L103.925647,35.9436081 C105.199343,35.3108256 105.99638,34.0062 105.99638,32.5922045 L105.99638,24.4363413 C111.669407,20.8193253 115.998411,15.9679928 115.998411,7.94493577 C116.006225,5.97627912 116.006225,4.00762247 115.467053,1.49211675 Z M107.254448,12.4994073 C105.183715,12.4994073 103.503687,10.8197994 103.503687,8.74958511 C103.503687,6.67937078 105.183715,4.99976292 107.254448,4.99976292 C109.325181,4.99976292 111.00521,6.67937078 111.00521,8.74958511 C111.00521,10.8197994 109.325181,12.4994073 107.254448,12.4994073 Z"/>
        </g>
      </g>
      <path fill="#A9BEC7" fill-rule="nonzero" d="M116.744874 140.11623L122.133752 135.171838C123.740161 133.746144 122.991097 131.21248 120.884062 130.740068L113.54225 128.983356 115.611902 122.170192C116.196786 120.210453 114.225689 118.362005 112.135997 118.910442L104.87106 120.851394 102.997931 113.96616C102.502227 112.021692 99.7694086 111.310548 98.2723352 112.79414L93.0000586 117.885419 87.7278992 112.79425C86.247818 111.327467 83.5036326 111.999499 83.0023035 113.96627L81.1291746 120.851504 73.8641204 118.910552C71.7738426 118.361895 69.8034479 120.211002 70.3882148 122.170302L72.4578675 128.983466 65.1160554 130.740178C63.0080822 131.212699 62.2605416 133.746803 63.8662481 135.171838L69.2551265 140.11623 63.8662481 145.060512C62.2598385 146.486206 63.0089026 149.01987 65.1159382 149.492282L72.4577503 151.248994 70.3880976 158.062158C69.8032135 160.021897 71.7743114 161.870345 73.8640032 161.321908L81.1289402 159.380955 83.0020691 166.26619C83.5222655 168.306898 86.2477008 168.904883 87.7276648 167.43821L93.0000586 162.384395 98.272218 167.43821C99.7370648 168.920044 102.489453 168.260646 102.997814 166.26619L104.870943 159.380955 112.13588 161.321908C114.22604 161.870565 116.196552 160.021458 115.611785 158.062158L113.542133 151.248994 120.883945 149.492282C122.991801 149.01965 123.739341 146.485657 122.133635 145.060512L116.744874 140.11623zM18.8724368 47.0581149L21.566876 44.585919C22.3700807 43.8730719 21.9955487 42.6062398 20.9420309 42.370034L17.2711248 41.491678 18.3059512 38.0850959C18.5983932 37.1052263 17.6128443 36.1810025 16.5679984 36.4552209L12.9355299 37.4256972 11.9989655 33.98308C11.7511134 33.0108459 10.3847043 32.6552738 9.63616758 33.3970699L7.0000293 35.9427093 4.3639496 33.3971248C3.623909 32.6637333 2.25181631 32.9997497 2.00115173 33.9831349L1.06458728 37.4257521-2.56793979 36.4552758C-3.61307868 36.1809475-4.59827604 37.105501-4.30589262 38.0851508L-3.27106625 41.4917329-6.94197231 42.3700889C-7.99595888 42.6063496-8.36972918 43.8734015-7.56687595 44.585919L-4.87243677 47.0581149-7.56687595 49.5302558C-8.37008075 50.243103-7.99554872 51.5099351-6.94203091 51.7461409L-3.27112485 52.6244969-4.30595121 56.031079C-4.59839323 57.0109485-3.61284431 57.9351724-2.56799839 57.660954L1.0644701 56.6904777 2.00103454 60.1330949C2.26113274 61.153449 3.62385041 61.4524416 4.36383242 60.719105L7.0000293 58.1921973 9.63610899 60.719105C10.3685324 61.4600222 11.7447267 61.1303228 11.9989069 60.1330949L12.9354713 56.6904777 16.5679398 57.660954C17.6130201 57.9352823 18.598276 57.0107288 18.3058926 56.031079L17.2710663 52.6244969 20.9419723 51.7461409C21.9959003 51.5098252 22.3696706 50.2428283 21.5668174 49.5302558L18.8724368 47.0581149z" mask="url(#graphicdesigner-j)"/>
      <rect width="42" height="4" x="10" y="75" fill="gray"/>
      <rect width="22" height="4" x="10" y="83" fill="gray"/>
      <rect width="91" height="12" x="10" y="30" fill="gray"/>
      <rect width="30" height="12" x="41" y="12" fill="gray"/>
      <polygon fill="gray" points="99 146 111 146 99 158"/>
    </g>
    <g transform="translate(355)">
      <g transform="translate(57)">
        <polygon fill="#E4EEF2" points="156 0 168 12 168 118 0 118 0 0"/>
        <path fill="gray" d="M10,80 L74,80 L74,84 L10,84 L10,80 Z M94,80 L158,80 L158,84 L94,84 L94,80 Z M94,72 L158,72 L158,76 L94,76 L94,72 Z M94,64 L158,64 L158,68 L94,68 L94,64 Z M94,56 L158,56 L158,60 L94,60 L94,56 Z M10,88 L74,88 L74,92 L10,92 L10,88 Z M94,88 L158,88 L158,92 L94,92 L94,88 Z M10,96 L74,96 L74,100 L10,100 L10,96 Z M94,96 L158,96 L158,100 L94,100 L94,96 Z M10,104 L74,104 L74,108 L10,108 L10,104 Z M94,104 L158,104 L158,108 L94,108 L94,104 Z"/>
        <g fill="#A9BEC7" transform="translate(10 56)">
          <rect width="50" height="6"/>
          <rect width="40" height="6" y="9"/>
        </g>
        <rect width="148" height="40" x="10" y="10" fill="#A9BEC7"/>
        <polygon fill="gray" points="156 12 156 0 168 12"/>
        <path stroke="gray" d="M84,0 L84,118"/>
      </g>
      <g transform="translate(0 40)">
        <polygon fill="#E4EEF2" points="84 0 84 118 0 118 0 0"/>
        <rect width="60" height="10" x="6" y="7" fill="#EE86A8"/>
        <rect width="84" height="94" y="24" fill="#0093BF"/>
        <rect width="40" height="4" x="6" y="34" fill="#FFF"/>
        <rect width="40" height="4" x="6" y="54" fill="#FFF"/>
        <rect width="30" height="4" x="6" y="42" fill="#FFF"/>
      </g>
    </g>
  </g>
</svg>
