<svg xmlns="http://www.w3.org/2000/svg" xmlns:xlink="http://www.w3.org/1999/xlink" width="300" height="300" viewBox="0 0 300 300">
  <defs>
    <path id="journeyimage06-a" d="M6.70359009,0 L83.2964099,0 C86.6101184,-6.08718376e-16 89.2964099,2.6862915 89.2964099,6 C89.2964099,6.22137092 89.2841586,6.4425722 89.2597123,6.66258916 L80.5930456,84.6625892 C80.2554239,87.7011852 77.6870385,90 74.6297432,90 L15.3702568,90 C12.3129615,90 9.74457614,87.7011852 9.40695435,84.6625892 L0.740287684,6.66258916 C0.374349798,3.36914818 2.74755996,0.402635478 6.04100094,0.036697592 C6.26101789,0.0122512637 6.48221917,4.06651779e-17 6.70359009,0 Z"/>
    <path id="journeyimage06-c" d="M50,30 L50,160 L30,160 L30,30 C30,13.4314575 16.5685425,0 0,0 L80,0 C63.4314575,0 50,13.4314575 50,30 Z"/>
  </defs>
  <g fill="none" fill-rule="evenodd">
    <g transform="translate(15 70)">
      <path fill="#E4EEF2" d="M0,160 L270,160 L270,170 C270,173.313708 267.313708,176 264,176 L6,176 C2.6862915,176 4.05812251e-16,173.313708 0,170 L0,160 Z"/>
      <path fill="#A9BEC7" d="M21,0 L249,0 C252.313708,-6.08718376e-16 255,2.6862915 255,6 L255,160 L15,160 L15,6 C15,2.6862915 17.6862915,6.08718376e-16 21,0 Z"/>
      <rect width="216" height="136" x="27" y="12" fill="#E4EEF2"/>
      <circle cx="135" cy="6" r="2" fill="#E4EEF2"/>
      <g transform="translate(37 22)">
        <rect width="20" height="4" y="108" fill="#EE86A8"/>
        <polygon fill="#0093BF" points="4 100 12 100 12 104 4 104"/>
        <polygon fill="#0093BF" points="8 92 125 92 125 96 8 96"/>
        <polygon fill="#0093BF" points="4 84 28 84 28 88 4 88"/>
        <polygon fill="#0093BF" points="8 76 125 76 125 80 8 80"/>
        <polygon fill="#0093BF" points="4 68 61 68 61 72 4 72"/>
        <polygon fill="#0093BF" points="4 60 76 60 76 64 4 64"/>
        <polygon fill="#0093BF" points="4 52 76 52 76 56 4 56"/>
        <polygon fill="#0093BF" points="4 44 76 44 76 48 4 48"/>
        <rect width="27" height="4" y="36" fill="#EE86A8"/>
        <rect width="20" height="4" y="24" fill="#EE86A8"/>
        <polygon fill="#0093BF" points="4 16 130 16 130 20 4 20"/>
        <polygon fill="#0093BF" points="4 8 98 8 98 12 4 12"/>
        <rect width="79" height="4" fill="#EE86A8"/>
      </g>
    </g>
    <g transform="translate(105 -4)">
      <g transform="translate(0 160)">
        <path stroke="#E4EEF2" stroke-width="8" d="M57,24 C55.8954305,24 55,24.8954305 55,26 L55,64 C55,65.1045695 55.8954305,66 57,66 L92.1162509,66 C92.7238184,66 93.2984442,65.7238206 93.6779885,65.2493901 L106.561738,49.1447037 C106.845438,48.7900776 107,48.3494566 107,47.8953136 L107,26 C107,24.8954305 106.104569,24 105,24 L57,24 Z"/>
        <mask id="journeyimage06-b" fill="#fff">
          <use xlink:href="#journeyimage06-a"/>
        </mask>
        <use fill="#E4EEF2" xlink:href="#journeyimage06-a"/>
        <g stroke-linecap="round" mask="url(#journeyimage06-b)">
          <g transform="translate(-7 29)">
            <path stroke="#A9BEC7" stroke-width="2" d="M0 4.25L8 4.25M3.86666667.0333333333L3.86666667 8.03333333" transform="rotate(45 3.564 8.605)"/>
            <path stroke="#A9BEC7" stroke-width="2" d="M0 4.25L8 4.25M3.86666667.0333333333L3.86666667 8.03333333" transform="rotate(45 8.564 20.676)"/>
            <path stroke="#A9BEC7" stroke-width="2" d="M0 4.25L8 4.25M3.86666667.0333333333L3.86666667 8.03333333" transform="rotate(45 13.564 32.747)"/>
            <path stroke="#A9BEC7" stroke-width="2" d="M0 4.25L8 4.25M3.86666667.0333333333L3.86666667 8.03333333" transform="rotate(45 18.564 44.818)"/>
            <path stroke="#A9BEC7" stroke-width="2" d="M0 4.25L8 4.25M3.86666667.0333333333L3.86666667 8.03333333" transform="rotate(45 23.564 56.889)"/>
            <path stroke="#A9BEC7" stroke-width="2" d="M0 4.25L8 4.25M3.86666667.0333333333L3.86666667 8.03333333" transform="rotate(45 28.564 68.96)"/>
            <path stroke="#A9BEC7" stroke-width="2" d="M0 4.25L8 4.25M3.86666667.0333333333L3.86666667 8.03333333" transform="rotate(45 33.564 81.031)"/>
            <path stroke="#A9BEC7" stroke-width="2" d="M0 4.25L8 4.25M3.86666667.0333333333L3.86666667 8.03333333" transform="rotate(45 38.564 93.102)"/>
            <path stroke="#A9BEC7" stroke-width="2" d="M0 4.25L8 4.25M3.86666667.0333333333L3.86666667 8.03333333" transform="rotate(45 43.564 105.173)"/>
            <path stroke="#A9BEC7" stroke-width="2" d="M0 4.25L8 4.25M3.86666667.0333333333L3.86666667 8.03333333" transform="rotate(45 48.564 117.244)"/>
          </g>
        </g>
      </g>
      <g transform="translate(5)">
        <mask id="journeyimage06-d" fill="#fff">
          <use xlink:href="#journeyimage06-c"/>
        </mask>
        <rect width="80" height="160" y="4" fill="#754310" mask="url(#journeyimage06-d)"/>
      </g>
    </g>
  </g>
</svg>
