<svg xmlns="http://www.w3.org/2000/svg" xmlns:xlink="http://www.w3.org/1999/xlink" width="100%" height="100%" viewBox="0 0 300 300">
  <defs>
    <path id="journeyimage4-a" d="M72.4928447,34.5549114 L76.6515073,41.6493229 C77.3381385,42.8205948 78.9205326,43.096402 79.9710078,42.2279307 L86.3335134,36.9672434 C88.0530266,35.5455607 90.6383548,36.9095416 90.4120029,39.1191242 L89.5748152,47.2949667 C89.4365426,48.6448153 90.551906,49.7923854 91.9144708,49.7021782 L100.16724,49.1560906 C102.39752,49.0085471 103.679303,51.6232616 102.189372,53.2811001 L96.6761084,59.4153846 C95.7658619,60.4282039 95.9880434,62.0091073 97.1421993,62.7317938 L104.132865,67.1088887 C106.022162,68.2918076 105.510746,71.1585398 103.326073,71.6314776 L95.2424804,73.3813159 C93.9078347,73.6701769 93.1519917,75.0807279 93.6569766,76.3401725 L96.7153006,83.9685365 C97.5418061,86.0301498 95.4325932,88.0539053 93.3879437,87.1612412 L85.8218688,83.8580883 C84.5726872,83.3126896 83.1274935,84.0139965 82.790446,85.3292601 L80.7483678,93.2951289 C80.1964645,95.4479453 77.2951224,95.8557024 76.1712023,93.9384076 L72.0125398,86.8439961 C71.3259085,85.6727242 69.7435144,85.396917 68.6930392,86.2653883 L62.3304121,91.5260926 C60.6108989,92.9477753 58.0255707,91.5837945 58.2519226,89.3742118 L59.0891103,81.1983693 C59.2273829,79.8485207 58.1120195,78.7009506 56.7494548,78.7911578 L48.4966859,79.3372454 C46.2664054,79.4847889 44.9846224,76.8700744 46.4745536,75.2122359 L51.9878171,69.0779515 C52.8980636,68.0651321 52.6758821,66.4842287 51.5217262,65.7615422 L44.5310607,61.3844473 C42.6417632,60.2015284 43.1531792,57.3347962 45.3378524,56.8618585 L53.4214451,55.1120202 C54.7560908,54.8231591 55.5119338,53.4126081 55.0069489,52.1531635 L51.9486249,44.5247995 C51.1221194,42.4631863 53.2313323,40.4394307 55.2759818,41.3320948 L62.8421782,44.6352307 C64.0913598,45.1806294 65.536432,44.4793396 65.873601,43.1640588 L67.9156792,35.19819 C68.4675995,33.0454943 71.3689415,32.6377373 72.4928447,34.5549114 Z M90.856903,61.9242391 C89.5849271,52.8736607 81.1369732,46.5524023 72.0251697,47.8329828 C62.9132448,49.1135803 56.5350467,57.5185185 57.8070225,66.5690969 C59.0789984,75.6196754 67.5268308,81.9409508 76.6387558,80.6603532 C85.7505592,79.3797728 92.1288788,70.9748176 90.856903,61.9242391 Z M86.9686818,62.470693 C87.9413682,69.3917165 83.0639164,75.8190302 76.0959809,76.7983097 C69.1280455,77.7775891 62.6679302,72.9436665 61.6952437,66.022643 C60.7225573,59.1016196 65.6000091,52.6743058 72.5679446,51.6950264 C79.53588,50.7157469 85.9959953,55.5496695 86.9686818,62.470693 Z"/>
    <polygon id="journeyimage4-b" points=".976 32.149 96.081 1.247 133.781 117.276 126.077 132.397 42.384 159.59"/>
  </defs>
  <g fill="none" fill-rule="evenodd">
    <path class="phone" fill="#EE86A8" fill-rule="nonzero" d="M211.375971,288.435667 C209.481335,288.454322 207.850407,287.16291 207.442508,285.321046 L203.548933,267.730626 C203.125228,265.816461 204.139247,263.846365 205.956655,263.05276 L225.023739,254.727508 C226.697017,253.996949 228.629946,254.452138 229.763956,255.84379 L238.06998,266.036667 C251.128833,259.809789 262.055812,249.02832 268.415659,235.690988 L258.223117,227.384961 C256.831465,226.250951 256.376276,224.318021 257.106835,222.644744 L265.431918,203.577829 C266.22545,201.760351 268.195608,200.7463 270.109784,201.170106 L287.700204,205.063682 C289.528217,205.468357 290.833545,207.089456 290.814659,208.996979 C290.384833,252.410375 254.853978,288.005201 211.375971,288.435667 Z M256.110903,194.05092 C257.896931,193.574144 259.628676,194.877874 259.6493,196.716719 L259.671587,198.674882 C259.686178,199.956616 258.83956,201.09591 257.610395,201.485497 C255.206772,202.249264 253.312182,204.143854 252.548415,206.547477 C252.158663,207.776477 251.019534,208.623261 249.7378,208.60867 L247.779637,208.586382 C245.940791,208.565759 244.637061,206.834013 245.113837,205.047985 C246.541739,199.698293 250.761211,195.478821 256.110903,194.05092 Z M256.313704,163.424749 C257.955661,163.265727 259.361596,164.530004 259.38028,166.175892 L259.401802,168.076153 C259.418803,169.570924 258.277739,170.849874 256.787181,170.999029 C238.50327,172.827466 223.892041,187.425105 222.062116,205.724094 C221.912961,207.214652 220.633845,208.35555 219.13924,208.338715 L217.238979,208.317194 C215.59309,208.298509 214.328814,206.892575 214.487836,205.250617 C216.623224,183.197364 234.242692,165.561987 256.313704,163.424749 Z M256.335613,178.640544 C258.016729,178.414521 259.496548,179.688108 259.515286,181.379353 L259.536403,183.286648 C259.552247,184.729211 258.489185,185.990484 257.056346,186.192626 C246.816467,187.637646 238.70074,195.752711 237.255713,205.99326 C237.053571,207.426098 235.792129,208.489329 234.349735,208.473316 L232.44244,208.452199 C230.751195,208.433461 229.477608,206.953642 229.703631,205.272526 C231.562589,191.445348 242.530725,180.496437 256.335613,178.640544 Z"/>
    <g class="shirt" transform="translate(5 7)">
      <path fill="#E4EEF2" d="M88.8872792,6.45861584 L132.997575,0.259318111 L138.564499,39.8700409 L112.817529,43.4885415 L123.951377,122.709987 L42.7493952,134.122181 L31.6155472,54.9007358 L5.86857738,58.5192364 L0.301653337,18.9085136 L44.4119487,12.7092159 C49.5957676,20.3540989 58.8339991,24.8199149 68.5980374,23.4476688 C78.3620756,22.0754228 86.0114879,15.2362031 88.8872792,6.45861584 Z"/>
      <use fill="#EE86A8" fill-rule="nonzero" xlink:href="#journeyimage4-a"/>
    </g>
    <g class="planeLeaflet" transform="translate(5 136)">
      <mask id="journeyimage4-c" fill="#fff">
        <use xlink:href="#journeyimage4-b"/>
      </mask>
      <use fill="#E4EEF2" xlink:href="#journeyimage4-b"/>
      <path fill="#EE86A8" d="M85.5718247,105.74951 C92.2104956,103.592475 98.5312519,104.734227 99.6897331,108.299666 C100.848214,111.865104 96.4057199,116.504048 89.7670489,118.661083 L76.8466174,122.859186 L72.0808737,149.170295 C71.9613908,149.661454 71.5952111,150.055977 71.1135674,150.212473 L64.4345591,152.382614 C63.5272579,152.677414 62.5866584,152.038356 62.5297121,151.088347 L59.4416907,128.514389 L46.7443281,132.640012 L44.8890638,140.656865 C44.7738578,141.154912 44.4052589,141.556602 43.9180901,141.714892 L38.9981653,143.313728 C38.1229172,143.598241 37.2069195,143.012875 37.1003971,142.101024 L35.5852993,129.128586 L29.1859192,117.742766 C28.7361623,116.942565 29.1331509,115.930585 30.0083209,115.646225 L34.9283206,114.04762 C35.415508,113.889318 35.9498158,113.997581 36.335863,114.33282 L42.5491038,119.72844 L55.2464664,115.602816 L44.4760888,95.5250077 C43.9637956,94.7230775 44.3490898,93.6530822 45.256391,93.3582821 L51.9353993,91.1881408 C52.4170431,91.0316454 52.9451835,91.1355861 53.3305435,91.4627124 L72.6512775,109.94765 L85.5718247,105.74951 Z" mask="url(#journeyimage4-c)"/>
      <polygon fill="#EE86A8" points=".976 32.149 97.032 .938 112.483 48.491 16.426 79.702"/>
      <polygon fill="#FFF" points="14.496 40.265 90.581 15.544 93.671 25.054 17.586 49.776"/>
      <polygon fill="#FFF" points="18.822 53.58 75.886 35.039 77.122 38.843 20.059 57.384"/>
      <polygon fill="#FFF" points="21.295 61.188 78.358 42.647 79.594 46.452 22.531 64.993"/>
      <polygon fill="gray" points="122.369 120.984 133.781 117.276 126.077 132.397"/>
    </g>
    <g class="senbei" transform="translate(165 5)">
      <polygon fill="#E4EEF2" points=".724 121.567 .263 121.443 32.616 .703 33.313 .889 36.174 11.569 43.993 3.751 45.387 4.125 48.249 14.805 56.067 6.986 57.461 7.36 60.323 18.04 68.141 10.222 69.535 10.595 72.397 21.275 80.215 13.457 81.609 13.83 84.471 24.51 92.289 16.692 93.683 17.066 96.545 27.745 104.363 19.927 105.757 20.301 108.619 30.981 116.437 23.163 117.831 23.536 120.693 34.216 128.511 26.398 129.208 26.585 96.856 147.325 96.396 147.202 93.407 136.048 85.242 144.213 84.322 143.967 81.333 132.813 73.168 140.978 72.247 140.731 69.259 129.578 61.094 137.743 60.173 137.496 57.185 126.343 49.02 134.508 48.099 134.261 45.111 123.107 36.946 131.272 36.025 131.026 33.037 119.872 24.872 128.037 23.951 127.791 20.963 116.637 12.798 124.802 11.877 124.555 8.889 113.402"/>
      <path fill="#0093BF" d="M53.4124506,116.273213 C30.0733086,110.019509 16.2228247,86.0297672 22.4765289,62.6906252 C28.7302332,39.3514832 52.719975,25.5009993 76.0591171,31.7547035 C99.3982591,38.0084078 113.248743,61.9981496 106.995039,85.3372917 C100.741334,108.676434 76.7515926,122.526918 53.4124506,116.273213 Z"/>
      <path fill="#E4EEF2" fill-rule="nonzero" d="M88.7447886,75.8373288 L66.2100931,76.6821489 C64.7715807,76.7167154 63.3534892,76.3367389 62.1249842,75.5875472 L48.2431182,66.863562 C47.3655746,67.5535419 46.9455911,68.3801978 46.5686079,69.5154517 C47.157069,70.1259012 47.4205549,71.0206795 47.1850901,71.8994462 C46.9434176,72.80138 46.2380337,73.4546677 45.3943295,73.673039 L44.1275701,83.28974 C44.0783376,83.6636447 43.7107834,83.9094692 43.3461466,83.8117651 L39.7239272,82.8411943 C39.3595923,82.7435711 39.1638105,82.3471246 39.3082274,81.9983201 L43.0195321,73.036633 C42.3980283,72.4257414 42.1137917,71.5072856 42.3554641,70.6053518 C42.5987946,69.69723 43.3121687,69.0409877 44.1636426,68.8271248 C44.5980797,67.4916369 45.1354714,66.3997688 46.0430911,65.4810283 L43.0317,63.5885436 C41.4429286,62.6127619 42.1071744,60.1669662 43.9620338,60.1164908 L66.4967293,59.2716707 C67.9352417,59.2371042 69.3533332,59.6170806 70.5818382,60.3662724 L89.6750469,72.3652557 C91.2638939,73.3410577 90.599648,75.7868534 88.7447886,75.8373288 Z M66.3038865,79.1803792 L78.6339525,78.717582 L77.8872658,85.3024536 C77.1725608,87.969769 69.8359948,88.3215064 61.5005887,86.0880411 C53.1651825,83.8545757 46.9873987,79.8816792 47.7021037,77.2143638 L50.3479653,71.1383746 L60.7947171,77.7042017 L60.8090438,77.7132169 L60.8234312,77.7220057 C62.4614017,78.7209011 64.3521456,79.2275244 66.2701173,79.1814409 L66.2869716,79.1810232 L66.3038865,79.1803792 Z"/>
    </g>
    <g class="treeLeaflet" transform="translate(89 77)">
      <polygon fill="#E4EEF2" points="121.875 17.7 116.665 47.245 18.185 29.88 23.394 .335"/>
      <polygon fill="gray" points="31.506 11.92 110.29 25.812 108.554 35.66 29.769 21.768"/>
      <polygon fill="#0093BF" points="18.185 29.88 116.665 47.245 100.69 137.847 86.788 147.581 .125 132.3"/>
      <polygon fill="gray" points="88.872 135.763 100.69 137.847 86.788 147.581"/>
      <path fill="#E4EEF2" fill-rule="nonzero" d="M78.1407916,105.640095 C79.5404614,107.752641 77.7279462,110.527015 75.2446398,110.089141 L61.091563,107.593572 L61.091354,107.594758 C60.3426391,111.843001 61.6892952,114.018203 63.6907604,116.304342 C64.8835508,117.666849 63.6956705,119.788537 61.9159479,119.474724 L44.9280088,116.479292 C43.1482863,116.165479 42.7578429,113.765367 44.3445651,112.893086 C47.4165916,111.204233 49.0809636,109.483185 49.7662703,105.596618 L35.6126037,103.100944 C33.1233988,102.66203 32.3798638,99.4325541 34.4127747,97.9296659 L46.0828003,89.2994021 L42.0606698,88.590192 C39.5824362,88.1532126 38.8266472,84.9394239 40.8484179,83.42797 L52.4295286,74.7707813 L48.5116851,74.0799598 C46.0386423,73.6438957 45.284178,70.4508782 47.2800591,68.9324143 L61.890617,57.8165279 C63.2249566,56.8013351 65.1347244,57.1399124 66.0401571,58.5482038 L75.9677334,73.9908253 C77.3293312,76.1088827 75.5128345,78.840991 73.0498193,78.4066949 L69.1319759,77.7158734 L77.0536092,89.8119221 C78.435964,91.9226372 76.6284124,94.6854177 74.1489991,94.2482302 L70.1268686,93.5390201 L78.1407916,105.640095 Z"/>
    </g>
  </g>
</svg>