<svg xmlns="http://www.w3.org/2000/svg" width="100%" height="100%" viewBox="0 0 300 300">
  <g fill="none" fill-rule="evenodd">
    <g class="mag01" transform="translate(63 55)">
      <polygon fill="#E4EEF2" points="52.8 0 52.8 18.908 0 18.908 0 0"/>
      <rect width="37.714" height="6.303" x="3.771" y="4.412" fill="gray"/>
      <polygon fill="#EE86A8" points="0 13.866 52.8 18.908 52.8 66.807 45.257 74.37 0 74.37"/>
      <rect width="25.143" height="2.521" x="3.771" y="21.429" fill="#FFF"/>
      <rect width="18.857" height="2.521" x="3.771" y="26.471" fill="#FFF"/>
      <polygon fill="gray" points="45.257 74.37 45.257 66.807 52.8 74.37" transform="rotate(90 49.029 70.588)"/>
    </g>
    <g class="mag02" transform="translate(122 55)">
      <polygon fill="#E4EEF2" points="52.8 0 52.8 18.908 0 18.908 0 0"/>
      <rect width="37.714" height="6.303" x="3.771" y="4.412" fill="gray"/>
      <polygon fill="gray" points="0 13.866 52.8 18.908 52.8 66.807 45.257 74.37 0 74.37"/>
      <rect width="25.143" height="2.521" x="3.771" y="21.429" fill="#FFF"/>
      <rect width="18.857" height="2.521" x="3.771" y="26.471" fill="#FFF"/>
      <polygon fill="#A9BEC7" points="45.257 74.37 45.257 66.807 52.8 74.37" transform="rotate(90 49.029 70.588)"/>
    </g>
    <g class="mag03" transform="translate(182 55)">
      <polygon fill="#E4EEF2" points="52.8 0 52.8 18.908 0 18.908 0 0"/>
      <rect width="37.714" height="6.303" x="3.771" y="4.412" fill="gray"/>
      <polygon fill="#0093BF" points="0 13.866 52.8 18.908 52.8 66.807 45.257 74.37 0 74.37"/>
      <rect width="25.143" height="2.521" x="3.771" y="21.429" fill="#FFF"/>
      <rect width="18.857" height="2.521" x="3.771" y="26.471" fill="#FFF"/>
      <polygon fill="gray" points="45.257 74.37 45.257 66.807 52.8 74.37" transform="rotate(90 49.029 70.588)"/>
    </g>
    <g class="mag04" transform="translate(241 55)">
      <polygon fill="#E4EEF2" points="52.8 0 52.8 18.908 0 18.908 0 0"/>
      <rect width="37.714" height="6.303" x="3.771" y="4.412" fill="gray"/>
      <polygon fill="#A9BEC7" points="0 13.866 52.8 18.908 52.8 66.807 45.257 74.37 0 74.37"/>
      <rect width="25.143" height="2.521" x="3.771" y="21.429" fill="#FFF"/>
      <rect width="18.857" height="2.521" x="3.771" y="26.471" fill="#FFF"/>
      <polygon fill="gray" points="45.257 74.37 45.257 66.807 52.8 74.37" transform="rotate(90 49.029 70.588)"/>
    </g>
    <g class="mag05" transform="translate(65 137)">
      <polygon fill="#E4EEF2" points="52.8 0 52.8 18.908 0 18.908 0 0"/>
      <rect width="37.714" height="6.303" x="3.771" y="4.412" fill="gray"/>
      <polygon fill="#0093BF" points="0 13.866 52.8 18.908 52.8 66.807 45.257 74.37 0 74.37"/>
      <rect width="25.143" height="2.521" x="3.771" y="21.429" fill="#FFF"/>
      <rect width="18.857" height="2.521" x="3.771" y="26.471" fill="#FFF"/>
      <polygon fill="gray" points="45.257 74.37 45.257 66.807 52.8 74.37" transform="rotate(90 49.029 70.588)"/>
    </g>
    <g class="mag06" transform="translate(124 137)">
      <polygon fill="#E4EEF2" points="52.8 0 52.8 18.908 0 18.908 0 0"/>
      <rect width="37.714" height="6.303" x="3.771" y="4.412" fill="gray"/>
      <polygon fill="#A9BEC7" points="0 13.866 52.8 18.908 52.8 66.807 45.257 74.37 0 74.37"/>
      <rect width="25.143" height="2.521" x="3.771" y="21.429" fill="#FFF"/>
      <rect width="18.857" height="2.521" x="3.771" y="26.471" fill="#FFF"/>
      <polygon fill="gray" points="45.257 74.37 45.257 66.807 52.8 74.37" transform="rotate(90 49.029 70.588)"/>
    </g>
    <g class="mag07" transform="translate(182 137)">
      <polygon fill="#E4EEF2" points="52.8 0 52.8 18.908 0 18.908 0 0"/>
      <rect width="37.714" height="6.303" x="3.771" y="4.412" fill="gray"/>
      <polygon fill="gray" points="0 13.866 52.8 18.908 52.8 66.807 45.257 74.37 0 74.37"/>
      <rect width="25.143" height="2.521" x="3.771" y="21.429" fill="#FFF"/>
      <rect width="18.857" height="2.521" x="3.771" y="26.471" fill="#FFF"/>
      <polygon fill="#A9BEC7" points="45.257 74.37 45.257 66.807 52.8 74.37" transform="rotate(90 49.029 70.588)"/>
    </g>
    <g class="mag08" transform="translate(241 137)">
      <polygon fill="#E4EEF2" points="52.8 0 52.8 18.908 0 18.908 0 0"/>
      <rect width="37.714" height="6.303" x="3.771" y="4.412" fill="gray"/>
      <polygon fill="#EE86A8" points="0 13.866 52.8 18.908 52.8 66.807 45.257 74.37 0 74.37"/>
      <rect width="25.143" height="2.521" x="3.771" y="21.429" fill="#FFF"/>
      <rect width="18.857" height="2.521" x="3.771" y="26.471" fill="#FFF"/>
      <polygon fill="gray" points="45.257 74.37 45.257 66.807 52.8 74.37" transform="rotate(90 49.029 70.588)"/>
    </g>
    <g class="mag09" transform="translate(65 218)">
      <polygon fill="#E4EEF2" points="52.8 0 52.8 18.908 0 18.908 0 0"/>
      <rect width="37.714" height="6.303" x="3.771" y="4.412" fill="gray"/>
      <polygon fill="gray" points="0 13.866 52.8 18.908 52.8 66.807 45.257 74.37 0 74.37"/>
      <rect width="25.143" height="2.521" x="3.771" y="21.429" fill="#FFF"/>
      <rect width="18.857" height="2.521" x="3.771" y="26.471" fill="#FFF"/>
      <polygon fill="#A9BEC7" points="45.257 74.37 45.257 66.807 52.8 74.37" transform="rotate(90 49.029 70.588)"/>
    </g>
    <g class="mag10" transform="translate(123 219)">
      <polygon fill="#E4EEF2" points="52.8 0 52.8 18.908 0 18.908 0 0"/>
      <rect width="37.714" height="6.303" x="3.771" y="4.412" fill="gray"/>
      <polygon fill="#EE86A8" points="0 13.866 52.8 18.908 52.8 66.807 45.257 74.37 0 74.37"/>
      <rect width="25.143" height="2.521" x="3.771" y="21.429" fill="#FFF"/>
      <rect width="18.857" height="2.521" x="3.771" y="26.471" fill="#FFF"/>
      <polygon fill="gray" points="45.257 74.37 45.257 66.807 52.8 74.37" transform="rotate(90 49.029 70.588)"/>
    </g>
    <g class="mag11" transform="translate(182 218)">
      <polygon fill="#E4EEF2" points="52.8 0 52.8 18.908 0 18.908 0 0"/>
      <rect width="37.714" height="6.303" x="3.771" y="4.412" fill="gray"/>
      <polygon fill="#0093BF" points="0 13.866 52.8 18.908 52.8 66.807 45.257 74.37 0 74.37"/>
      <rect width="25.143" height="2.521" x="3.771" y="21.429" fill="#FFF"/>
      <rect width="18.857" height="2.521" x="3.771" y="26.471" fill="#FFF"/>
      <polygon fill="gray" points="45.257 74.37 45.257 66.807 52.8 74.37" transform="rotate(90 49.029 70.588)"/>
    </g>
    <g class="mag12" transform="translate(241 218)">
      <polygon fill="#E4EEF2" points="52.8 0 52.8 18.908 0 18.908 0 0"/>
      <rect width="37.714" height="6.303" x="3.771" y="4.412" fill="gray"/>
      <polygon fill="#A9BEC7" points="0 13.866 52.8 18.908 52.8 66.807 45.257 74.37 0 74.37"/>
      <rect width="25.143" height="2.521" x="3.771" y="21.429" fill="#FFF"/>
      <rect width="18.857" height="2.521" x="3.771" y="26.471" fill="#FFF"/>
      <polygon fill="gray" points="45.257 74.37 45.257 66.807 52.8 74.37" transform="rotate(90 49.029 70.588)"/>
    </g>
    <g class="cal01" transform="translate(6 6)">
      <circle cx="26" cy="26" r="26" fill="#EE86A8"/>
      <text fill="#FFF" font-family="RobotoCondensed-Bold, Roboto Condensed" font-size="22" font-style="condensed" font-weight="bold" letter-spacing=".25">
        <tspan x="8.369" y="33">JA</tspan> <tspan x="30.858" y="33">N</tspan>
      </text>
    </g>
    <g class="cal02" transform="translate(6 6)">
      <circle cx="26" cy="26" r="26" fill="gray"/>
      <text fill="#FFF" font-family="RobotoCondensed-Bold, Roboto Condensed" font-size="22" font-style="condensed" font-weight="bold" letter-spacing=".25">
        <tspan x="9.372" y="33">FEB</tspan>
      </text>
    </g>
    <g class="cal03" transform="translate(6 6)">
      <circle cx="26" cy="26" r="26" fill="#0093BF"/>
      <text fill="#FFF" font-family="RobotoCondensed-Bold, Roboto Condensed" font-size="22" font-style="condensed" font-weight="bold" letter-spacing=".25">
        <tspan x="6.133" y="33">MAR</tspan>
      </text>
    </g>
    <g class="cal04" transform="translate(6 6)">
      <circle cx="26" cy="26" r="26" fill="#A9BEC7"/>
      <text fill="#FFF" font-family="RobotoCondensed-Bold, Roboto Condensed" font-size="22" font-style="condensed" font-weight="bold" letter-spacing=".25">
        <tspan x="7.874" y="33">APR</tspan>
      </text>
    </g>
    <g class="cal05" transform="translate(6 6)">
      <circle cx="26" cy="26" r="26" fill="#0093BF"/>
      <text fill="#FFF" font-family="RobotoCondensed-Bold, Roboto Condensed" font-size="22" font-style="condensed" font-weight="bold" letter-spacing=".25">
        <tspan x="6.896" y="33">MAY</tspan>
      </text>
    </g>
    <g class="cal06" transform="translate(6 6)">
      <circle cx="26" cy="26" r="26" fill="#A9BEC7"/>
      <text fill="#FFF" font-family="RobotoCondensed-Bold, Roboto Condensed" font-size="22" font-style="condensed" font-weight="bold" letter-spacing=".25">
        <tspan x="7.938" y="33">JUN</tspan>
      </text>
    </g>
    <g class="cal07" transform="translate(6 6)">
      <circle cx="26" cy="26" r="26" fill="gray"/>
      <text fill="#FFF" font-family="RobotoCondensed-Bold, Roboto Condensed" font-size="22" font-style="condensed" font-weight="bold" letter-spacing=".25">
        <tspan x="9.308" y="33">JUL</tspan>
      </text>
    </g>
    <g class="cal08" transform="translate(6 6)">
      <circle cx="26" cy="26" r="26" fill="#EE86A8"/>
      <text fill="#FFF" font-family="RobotoCondensed-Bold, Roboto Condensed" font-size="22" font-style="condensed" font-weight="bold" letter-spacing=".25">
        <tspan x="7.852" y="33">AUG</tspan>
      </text>
    </g>
    <g class="cal09" transform="translate(6 6)">
      <circle cx="26" cy="26" r="26" fill="gray"/>
      <text fill="#FFF" font-family="RobotoCondensed-Bold, Roboto Condensed" font-size="22" font-style="condensed" font-weight="bold" letter-spacing=".25">
        <tspan x="8.722" y="33">SEP</tspan>
      </text>
    </g>
    <g class="cal10" transform="translate(6 6)">
      <circle cx="26" cy="26" r="26" fill="#EE86A8"/>
      <text fill="#FFF" font-family="RobotoCondensed-Bold, Roboto Condensed" font-size="22" font-style="condensed" font-weight="bold" letter-spacing=".25">
        <tspan x="8.164" y="33">OCT</tspan>
      </text>
    </g>
    <g class="cal11" transform="translate(6 6)">
      <circle cx="26" cy="26" r="26" fill="#0093BF"/>
      <text fill="#FFF" font-family="RobotoCondensed-Bold, Roboto Condensed" font-size="22" font-style="condensed" font-weight="bold" letter-spacing=".25">
        <tspan x="7.256" y="33">NOV</tspan>
      </text>
    </g>
    <g class="cal12" transform="translate(6 6)">
      <circle cx="26" cy="26" r="26" fill="#A9BEC7"/>
      <text fill="#FFF" font-family="RobotoCondensed-Bold, Roboto Condensed" font-size="22" font-style="condensed" font-weight="bold" letter-spacing=".25">
        <tspan x="8.738" y="33">DEC</tspan>
      </text>
    </g>
  </g>
</svg>
