<svg xmlns="http://www.w3.org/2000/svg" xmlns:xlink="http://www.w3.org/1999/xlink" width="300" height="300" viewBox="0 0 300 300">
  <defs>
    <rect id="journeyimage07-a" width="224" height="140" rx="4"/>
    <rect id="journeyimage07-c" width="224" height="140" rx="4"/>
  </defs>
  <g fill="none" fill-rule="evenodd">
    <g transform="translate(38 80)">
      <mask id="journeyimage07-b" fill="#fff">
        <use xlink:href="#journeyimage07-a"/>
      </mask>
      <use fill="#E4EEF2" xlink:href="#journeyimage07-a"/>
      <rect width="224" height="130" y="10" fill="#404040" mask="url(#journeyimage07-b)"/>
      <circle cx="5" cy="5" r="2" fill="gray" mask="url(#journeyimage07-b)"/>
      <circle cx="11" cy="5" r="2" fill="gray" mask="url(#journeyimage07-b)"/>
      <circle cx="17" cy="5" r="2" fill="gray" mask="url(#journeyimage07-b)"/>
      <g transform="translate(9 19)">
        <rect width="20" height="4" y="108" fill="#EE86A8"/>
        <polygon fill="#0093BF" points="4 100 12 100 12 104 4 104"/>
        <polygon fill="#0093BF" points="8 92 125 92 125 96 8 96"/>
        <polygon fill="#0093BF" points="4 84 28 84 28 88 4 88"/>
        <polygon fill="#0093BF" points="8 76 125 76 125 80 8 80"/>
        <polygon fill="#0093BF" points="4 68 61 68 61 72 4 72"/>
        <polygon fill="#0093BF" points="4 60 76 60 76 64 4 64"/>
        <polygon fill="#0093BF" points="4 52 76 52 76 56 4 56"/>
        <polygon fill="#0093BF" points="4 44 76 44 76 48 4 48"/>
        <rect width="27" height="4" y="36" fill="#EE86A8"/>
        <rect width="20" height="4" y="24" fill="#EE86A8"/>
        <polygon fill="#0093BF" points="4 16 130 16 130 20 4 20"/>
        <polygon fill="#0093BF" points="4 8 98 8 98 12 4 12"/>
        <rect width="79" height="4" fill="#EE86A8"/>
      </g>
      <mask id="journeyimage07-d" fill="#fff">
        <use xlink:href="#journeyimage07-c"/>
      </mask>
      <use fill="#A9BEC7" xlink:href="#journeyimage07-c"/>
      <rect width="224" height="120" y="20" fill="#E4EEF2" mask="url(#journeyimage07-d)"/>
      <rect width="218" height="7" x="3" y="10" fill="#FFF" mask="url(#journeyimage07-d)" rx="2"/>
      <circle cx="5" cy="5" r="2" fill="gray" mask="url(#journeyimage07-d)"/>
      <circle cx="11" cy="5" r="2" fill="gray" mask="url(#journeyimage07-d)"/>
      <circle cx="17" cy="5" r="2" fill="gray" mask="url(#journeyimage07-d)"/>
      <g mask="url(#journeyimage07-d)">
        <g transform="translate(27 53)">
          <rect width="70" height="10" fill="#EE86A8"/>
          <rect width="50" height="4" y="30" fill="#EE86A8"/>
          <rect width="50" height="4" y="38" fill="#EE86A8"/>
          <rect width="50" height="4" y="46" fill="#EE86A8"/>
          <rect width="80" height="50" x="90" fill="#0093BF"/>
        </g>
      </g>
    </g>
    <g transform="translate(38 129)">
      <circle cx="55" cy="116" r="25" fill="#A9BEC7"/>
      <path fill="#0093BF" d="M224,91 L224,0 L271.925965,-3.55271368e-15 C275.115129,-1.30600674e-15 278.113035,1.52114774 279.996268,4.09490006 L301.21091,33.0882434 C304.972428,38.2289855 307,44.433594 307,50.8035432 L307,91 L307,111 L0,111 L0,91 L224,91 Z"/>
      <circle cx="267" cy="116" r="25" fill="#A9BEC7"/>
    </g>
  </g>
</svg>
