<svg xmlns="http://www.w3.org/2000/svg" xmlns:xlink="http://www.w3.org/1999/xlink" width="100%" height="100%" viewBox="0 0 560 260">
  <defs>
    <path id="screentosmall-a" d="M24,63 C28.2345109,27.6628912 45.2890625,7.03070028e-15 87,0 C128.710938,0 150,28.2060608 150,63 L150,177 C150,205.132128 157.660156,203.730015 157.660156,210 C157.660156,214.17999 155.106771,216.513323 150,217 L12,217 C5.372583,217 7.2475359e-13,214.627417 7.2475359e-13,208 C7.2475359e-13,196.448793 18,195.163542 18,166 C18,153.783584 19.7654891,98.3371088 24,63 Z"/>
    <path id="screentosmall-c" d="M3.25617725,0 L40.5276065,-4.4408921e-16 C42.1380689,-7.39926341e-16 43.4436065,1.30553767 43.4436065,2.916 C43.4436065,3.02306159 43.4377103,3.13004195 43.4259448,3.23645509 L39.2058956,41.4044551 C39.042542,42.8818983 37.7940038,44 36.3075574,44 L7.47622639,44 C5.98978,44 4.74124183,42.8818983 4.57788815,41.4044551 L0.357839015,3.23645509 C0.180856557,1.63574708 1.33501416,0.194644221 2.93572216,0.0176617629 C3.0421353,0.00589618236 3.14911566,-4.24422314e-16 3.25617725,-4.4408921e-16 Z"/>
    <path id="screentosmall-d" d="M24,63 C28.2345109,27.6628912 45.2890625,7.03070028e-15 87,0 C128.710938,0 150,28.2060608 150,63 L150,177 C150,205.132128 157.660156,203.730015 157.660156,210 C157.660156,214.17999 155.106771,216.513323 150,217 L12,217 C5.372583,217 7.2475359e-13,214.627417 7.2475359e-13,208 C7.2475359e-13,196.448793 18,195.163542 18,166 C18,153.783584 19.7654891,98.3371088 24,63 Z"/>
    <path id="screentosmall-f" d="M3.25617725,0 L40.5276065,-4.4408921e-16 C42.1380689,-7.39926341e-16 43.4436065,1.30553767 43.4436065,2.916 C43.4436065,3.02306159 43.4377103,3.13004195 43.4259448,3.23645509 L39.2058956,41.4044551 C39.042542,42.8818983 37.7940038,44 36.3075574,44 L7.47622639,44 C5.98978,44 4.74124183,42.8818983 4.57788815,41.4044551 L0.357839015,3.23645509 C0.180856557,1.63574708 1.33501416,0.194644221 2.93572216,0.0176617629 C3.0421353,0.00589618236 3.14911566,-4.24422314e-16 3.25617725,-4.4408921e-16 Z"/>
  </defs>
  <g fill="none" fill-rule="evenodd">
    <g transform="translate(227 115)">
      <g fill="#C19266" transform="translate(0 75.748)">
        <ellipse cx="45.903" cy="44.041" rx="11.274" ry="11.21"/>
        <rect width="22.549" height="21.62" x="34.628" y="22.421"/>
        <path d="M9.01904957,28.7347525 L50.7035284,4.80449571 L60.3672452,21.4477571 L18.667179,45.3869623 C17.2134908,46.257106 15.5106589,46.7575964 13.6902655,46.7575964 C8.35314206,46.7575964 4.02654867,42.4555044 4.02654867,37.1486049 C4.02654867,33.5263796 6.04219951,30.3722687 9.01904957,28.7347525 Z" transform="rotate(10 32.197 25.781)"/>
        <path d="M87.7477761,37.1486049 C87.7477761,42.4555044 83.4211828,46.7575964 78.0840593,46.7575964 C76.2636659,46.7575964 74.5608341,46.257106 73.1071458,45.3869623 L31.4070796,21.4477571 L41.0707965,4.80449571 L82.7552752,28.7347525 C85.7321253,30.3722687 87.7477761,33.5263796 87.7477761,37.1486049 Z" transform="rotate(-10 59.577 25.781)"/>
      </g>
      <g transform="translate(9.814)">
        <path fill="#FA678C" d="M5.39630012,21.1185194 C13.4253151,23.1778195 18.3935911,26.3413867 20.3011282,30.6092211 C18.9325802,22.0096759 20.3011282,8.21608853 37.4705882,0.767803899 C33.1051705,18.1951658 35.6226923,29.487378 45.0231536,34.6444405 C42.621382,28.0899302 45.3086893,22.5527381 53.0850758,18.0328643 C53.0850758,39.2796357 71.372549,46.0999415 71.372549,74.8571429 C71.372549,92.0826874 55.3952597,106.047619 35.6862745,106.047619 C15.9772893,106.047619 9.10209698e-13,92.0812442 9.09494702e-13,74.8571429 C9.09494702e-13,56.7720623 12.8665748,51.1118264 5.39630012,21.1185194 Z"/>
        <path fill="#FA678C" d="M16.7550405,53.5682956 C21.7731748,54.8407767 24.8783474,56.7956057 26.0705581,59.4327827 C25.2152155,54.1189583 26.0705581,45.5956355 36.8014706,40.9931973 C34.0730845,51.7618992 35.6465356,58.7395742 41.521824,61.9262223 C40.0207167,57.8760644 41.7002838,54.454527 46.5605253,51.66161 C46.5605253,64.7903985 57.9901961,69.0047966 57.9901961,86.7744242 C57.9901961,97.4184193 48.0043903,106.047619 35.6862745,106.047619 C23.3681588,106.047619 13.3823529,97.4175275 13.3823529,86.7744242 C13.3823529,75.5993052 21.4239622,72.1017366 16.7550405,53.5682956 Z"/>
        <path fill="#FFC761" d="M16.889948,50.6927163 C22.1088077,52.0349223 25.3381871,54.0968653 26.5780863,56.8785451 C25.68853,51.2735523 26.5780863,42.2831981 37.7382353,37.4285714 C34.9007138,48.7873392 36.5371029,56.1473526 42.6474028,59.5086115 C41.0862512,55.2365271 42.833001,51.6275082 47.8876522,48.6815547 C47.8876522,62.5297289 59.7745098,61.7520666 59.7745098,85.7183587 C59.7745098,96.9455864 49.3892717,106.047619 36.5784314,106.047619 C23.767591,106.047619 13.3823529,96.9446458 13.3823529,85.7183587 C13.3823529,73.9309045 21.7456265,70.2416883 16.889948,50.6927163 Z"/>
      </g>
    </g>
    <g transform="translate(13 14)">
      <path fill="#FAB44D" d="M121.705982,44.8438312 L160.787416,51.8515367 C161.333424,51.9494415 161.853099,52.1598428 162.313426,52.4693733 L170.063502,57.6806364 C171.896739,58.9133315 172.383575,61.3987605 171.15088,63.2319976 C170.86216,63.6613749 170.492877,64.0306578 170.063499,64.319377 L162.313425,69.5306285 C161.853099,69.8401578 161.333424,70.0505584 160.787418,70.148463 L121.705982,77.1561688 C119.531523,77.5460717 117.452697,76.0994034 117.062794,73.9249447 C117.021014,73.6919391 117,73.4556847 117,73.218963 L117,48.781037 C117,46.571898 118.790861,44.781037 121,44.781037 C121.236722,44.781037 121.472976,44.8020509 121.705982,44.8438312 Z"/>
      <mask id="screentosmall-b" fill="#fff">
        <use xlink:href="#screentosmall-a"/>
      </mask>
      <use fill="#495F83" xlink:href="#screentosmall-a"/>
      <path fill="#DFD9D3" d="M151.47764,82 L158,82 L158,217 C124.099544,217 104.099544,217 98,217 C91.4168279,214.891647 86.4755194,202.080598 90,160.230832 C90.6245266,152.815189 91.1537041,145.528328 91.5875325,138.37025 L91.5875333,138.37025 C93.506911,106.700918 119.750198,82 151.47764,82 Z" mask="url(#screentosmall-b)"/>
      <g transform="translate(108 36)">
        <circle cx="15" cy="15" r="13" fill="#262626" stroke="#DFD9D3" stroke-width="4"/>
        <circle cx="10" cy="11.429" r="6" fill="#DFD9D3"/>
      </g>
      <g transform="scale(-1 1) rotate(10 -491.487 -1139.8)">
        <path stroke="#C1D0D7" stroke-width="6" d="M27.8108108,12.7777778 L27.8108108,31.2222222 L44.7699044,31.2222222 L51,23.3961454 L51,12.7777778 L27.8108108,12.7777778 Z"/>
        <use fill="#C1D0D7" xlink:href="#screentosmall-c"/>
      </g>
      <g fill="#495F83" transform="rotate(-10 587.562 -394.632)">
        <path d="M0,0 C25.7940848,6.66666667 54.4262321,10 85.8964417,10 C89.50745,10 91.5644449,12.243161 91.5644449,16 C91.5644449,27.0017361 81.8893335,50 45.4129571,50 L0,50 L0,0 Z"/>
        <path d="M0,70 C0,60 10,50 20,50 C16.2233788,50 13.1856945,47.9778378 8.53174819,47.9778378 C6.97145226,47.9778378 4.1275362,48.6518919 0,50 C0,63.3333333 0,70 0,70 Z"/>
      </g>
    </g>
    <g transform="matrix(-1 0 0 1 547 14)">
      <path fill="#FAB44D" d="M121.705982,44.8438312 L160.787416,51.8515367 C161.333424,51.9494415 161.853099,52.1598428 162.313426,52.4693733 L170.063502,57.6806364 C171.896739,58.9133315 172.383575,61.3987605 171.15088,63.2319976 C170.86216,63.6613749 170.492877,64.0306578 170.063499,64.319377 L162.313425,69.5306285 C161.853099,69.8401578 161.333424,70.0505584 160.787418,70.148463 L121.705982,77.1561688 C119.531523,77.5460717 117.452697,76.0994034 117.062794,73.9249447 C117.021014,73.6919391 117,73.4556847 117,73.218963 L117,48.781037 C117,46.571898 118.790861,44.781037 121,44.781037 C121.236722,44.781037 121.472976,44.8020509 121.705982,44.8438312 Z"/>
      <mask id="screentosmall-e" fill="#fff">
        <use xlink:href="#screentosmall-d"/>
      </mask>
      <use fill="#495F83" xlink:href="#screentosmall-d"/>
      <path fill="#DFD9D3" d="M151.47764,82 L158,82 L158,217 C124.099544,217 104.099544,217 98,217 C91.4168279,214.891647 86.4755194,202.080598 90,160.230832 C90.6245266,152.815189 91.1537041,145.528328 91.5875325,138.37025 L91.5875333,138.37025 C93.506911,106.700918 119.750198,82 151.47764,82 Z" mask="url(#screentosmall-e)"/>
      <g transform="translate(108 36)">
        <circle cx="15" cy="15" r="13" fill="#262626" stroke="#DFD9D3" stroke-width="4"/>
        <circle cx="20" cy="11.429" r="6" fill="#DFD9D3"/>
      </g>
      <g transform="scale(-1 1) rotate(-10 514.578 1360.38)">
        <path stroke="#C1D0D7" stroke-width="6" d="M27.8108108,12.7777778 L27.8108108,31.2222222 L44.7699044,31.2222222 L51,23.3961454 L51,12.7777778 L27.8108108,12.7777778 Z"/>
        <use fill="#C1D0D7" xlink:href="#screentosmall-f"/>
      </g>
      <g fill="#495F83" transform="rotate(10 -479.503 610.782)">
        <path d="M0,0 C25.7940848,6.66666667 54.4262321,10 85.8964417,10 C89.50745,10 91.5644449,12.243161 91.5644449,16 C91.5644449,27.0017361 81.8893335,50 45.4129571,50 L0,50 L0,0 Z"/>
        <path d="M0,70 C0,60 10,50 20,50 C14.3967806,49.3333333 7.73011398,49 0,49 C0,63 0,70 0,70 Z"/>
      </g>
    </g>
  </g>
</svg>
